<?xml version="1.0" encoding="UTF-8" standalone="no"?>
<!DOCTYPE svg PUBLIC "-//W3C//DTD SVG 20010904//EN"
              "http://www.w3.org/TR/2001/REC-SVG-20010904/DTD/svg10.dtd">

<svg xmlns="http://www.w3.org/2000/svg"
     width="16.6667in" height="16.6667in"
     viewBox="0 0 1200 1200">
  <path id="Selección"
        fill="none" stroke="black" stroke-width="1"
        d="M 719.00,257.00
           C 719.00,257.00 721.00,257.00 721.00,257.00
             721.00,257.00 740.75,297.00 740.75,297.00
             740.75,297.00 778.75,373.00 778.75,373.00
             778.75,373.00 891.25,598.00 891.25,598.00
             891.25,598.00 937.25,690.00 937.25,690.00
             937.25,690.00 960.00,736.83 960.00,736.83
             960.00,736.83 469.00,736.83 469.00,736.83
             469.00,736.83 314.33,736.83 314.33,736.83
             314.33,736.83 265.67,736.83 265.67,736.83
             265.67,736.83 241.00,736.00 241.00,736.00
             241.00,736.00 252.75,711.00 252.75,711.00
             252.75,711.00 274.75,667.00 274.75,667.00
             274.75,667.00 330.25,556.00 330.25,556.00
             330.25,556.00 359.00,498.00 359.00,498.00
             359.00,498.00 361.00,498.00 361.00,498.00
             361.00,498.00 375.75,528.00 375.75,528.00
             375.75,528.00 402.25,581.00 402.25,581.00
             402.25,581.00 419.00,616.00 419.00,616.00
             419.00,616.00 421.00,616.00 421.00,616.00
             421.00,616.00 437.75,581.00 437.75,581.00
             437.75,581.00 469.75,517.00 469.75,517.00
             469.75,517.00 516.75,423.00 516.75,423.00
             516.75,423.00 540.00,377.00 540.00,377.00
             540.00,377.00 570.25,437.00 570.25,437.00
             570.25,437.00 599.00,495.00 599.00,495.00
             599.00,495.00 601.00,495.00 601.00,495.00
             601.00,495.00 612.75,470.00 612.75,470.00
             612.75,470.00 634.75,426.00 634.75,426.00
             634.75,426.00 690.25,315.00 690.25,315.00
             690.25,315.00 719.00,257.00 719.00,257.00 Z
           M 292.50,510.00" />
</svg>
